<mxfile host="app.diagrams.net" modified="2023-08-07T03:41:40.066Z" agent="Mozilla/5.0 (Windows NT 10.0; Win64; x64) AppleWebKit/537.36 (KHTML, like Gecko) Chrome/115.0.0.0 Safari/537.36" etag="JX9e4CtkKMjooD8AIIcB" version="21.6.6" type="device">
  <diagram name="Page-1" id="knbFpL0unE5yQDjcobAE">
    <mxGraphModel dx="1222" dy="652" grid="1" gridSize="10" guides="1" tooltips="1" connect="1" arrows="1" fold="1" page="1" pageScale="1" pageWidth="850" pageHeight="1100" math="0" shadow="0">
      <root>
        <mxCell id="0" />
        <mxCell id="1" parent="0" />
        <mxCell id="E4vfO_kaEjMB32sDwaS7-1" value="" style="sketch=0;points=[[0,0,0],[0.25,0,0],[0.5,0,0],[0.75,0,0],[1,0,0],[0,1,0],[0.25,1,0],[0.5,1,0],[0.75,1,0],[1,1,0],[0,0.25,0],[0,0.5,0],[0,0.75,0],[1,0.25,0],[1,0.5,0],[1,0.75,0]];outlineConnect=0;fontColor=#232F3E;gradientColor=#60A337;gradientDirection=north;fillColor=#277116;strokeColor=#ffffff;dashed=0;verticalLabelPosition=bottom;verticalAlign=top;align=center;html=1;fontSize=12;fontStyle=0;aspect=fixed;shape=mxgraph.aws4.resourceIcon;resIcon=mxgraph.aws4.s3;" vertex="1" parent="1">
          <mxGeometry x="80" y="20" width="78" height="78" as="geometry" />
        </mxCell>
        <mxCell id="E4vfO_kaEjMB32sDwaS7-22" value="" style="edgeStyle=orthogonalEdgeStyle;rounded=0;orthogonalLoop=1;jettySize=auto;html=1;" edge="1" parent="1" source="E4vfO_kaEjMB32sDwaS7-2" target="E4vfO_kaEjMB32sDwaS7-7">
          <mxGeometry relative="1" as="geometry" />
        </mxCell>
        <mxCell id="E4vfO_kaEjMB32sDwaS7-2" value="" style="outlineConnect=0;dashed=0;verticalLabelPosition=bottom;verticalAlign=top;align=center;html=1;shape=mxgraph.aws3.postgre_sql_instance;fillColor=#2E73B8;gradientColor=none;" vertex="1" parent="1">
          <mxGeometry x="320" y="22" width="76" height="76" as="geometry" />
        </mxCell>
        <mxCell id="E4vfO_kaEjMB32sDwaS7-21" style="edgeStyle=orthogonalEdgeStyle;rounded=0;orthogonalLoop=1;jettySize=auto;html=1;entryX=0.5;entryY=0;entryDx=0;entryDy=0;entryPerimeter=0;" edge="1" parent="1" source="E4vfO_kaEjMB32sDwaS7-3" target="E4vfO_kaEjMB32sDwaS7-5">
          <mxGeometry relative="1" as="geometry" />
        </mxCell>
        <mxCell id="E4vfO_kaEjMB32sDwaS7-3" value="" style="sketch=0;html=1;dashed=0;whitespace=wrap;fillColor=#2875E2;strokeColor=#ffffff;points=[[0.005,0.63,0],[0.1,0.2,0],[0.9,0.2,0],[0.5,0,0],[0.995,0.63,0],[0.72,0.99,0],[0.5,1,0],[0.28,0.99,0]];verticalLabelPosition=bottom;align=center;verticalAlign=top;shape=mxgraph.kubernetes.icon;prIcon=api" vertex="1" parent="1">
          <mxGeometry x="550" y="14" width="90" height="90" as="geometry" />
        </mxCell>
        <mxCell id="E4vfO_kaEjMB32sDwaS7-30" style="edgeStyle=orthogonalEdgeStyle;rounded=0;orthogonalLoop=1;jettySize=auto;html=1;entryX=1;entryY=0.5;entryDx=0;entryDy=0;entryPerimeter=0;" edge="1" parent="1" source="E4vfO_kaEjMB32sDwaS7-4" target="E4vfO_kaEjMB32sDwaS7-8">
          <mxGeometry relative="1" as="geometry" />
        </mxCell>
        <mxCell id="E4vfO_kaEjMB32sDwaS7-31" style="edgeStyle=orthogonalEdgeStyle;rounded=0;orthogonalLoop=1;jettySize=auto;html=1;entryX=-0.06;entryY=0.348;entryDx=0;entryDy=0;entryPerimeter=0;" edge="1" parent="1" source="E4vfO_kaEjMB32sDwaS7-4" target="E4vfO_kaEjMB32sDwaS7-9">
          <mxGeometry relative="1" as="geometry" />
        </mxCell>
        <mxCell id="E4vfO_kaEjMB32sDwaS7-4" value="" style="sketch=0;points=[[0,0,0],[0.25,0,0],[0.5,0,0],[0.75,0,0],[1,0,0],[0,1,0],[0.25,1,0],[0.5,1,0],[0.75,1,0],[1,1,0],[0,0.25,0],[0,0.5,0],[0,0.75,0],[1,0.25,0],[1,0.5,0],[1,0.75,0]];outlineConnect=0;fontColor=#232F3E;gradientColor=#945DF2;gradientDirection=north;fillColor=#5A30B5;strokeColor=#ffffff;dashed=0;verticalLabelPosition=bottom;verticalAlign=top;align=center;html=1;fontSize=12;fontStyle=0;aspect=fixed;shape=mxgraph.aws4.resourceIcon;resIcon=mxgraph.aws4.glue;" vertex="1" parent="1">
          <mxGeometry x="323" y="570" width="78" height="78" as="geometry" />
        </mxCell>
        <mxCell id="E4vfO_kaEjMB32sDwaS7-25" style="edgeStyle=orthogonalEdgeStyle;rounded=0;orthogonalLoop=1;jettySize=auto;html=1;" edge="1" parent="1" source="E4vfO_kaEjMB32sDwaS7-5">
          <mxGeometry relative="1" as="geometry">
            <mxPoint x="400" y="369" as="targetPoint" />
          </mxGeometry>
        </mxCell>
        <mxCell id="E4vfO_kaEjMB32sDwaS7-5" value="" style="outlineConnect=0;dashed=0;verticalLabelPosition=bottom;verticalAlign=top;align=center;html=1;shape=mxgraph.aws3.lambda_function;fillColor=#F58534;gradientColor=none;" vertex="1" parent="1">
          <mxGeometry x="560" y="333" width="69" height="72" as="geometry" />
        </mxCell>
        <mxCell id="E4vfO_kaEjMB32sDwaS7-6" value="" style="sketch=0;outlineConnect=0;fontColor=#232F3E;gradientColor=none;fillColor=#4D27AA;strokeColor=none;dashed=0;verticalLabelPosition=bottom;verticalAlign=top;align=center;html=1;fontSize=12;fontStyle=0;aspect=fixed;pointerEvents=1;shape=mxgraph.aws4.glue_crawlers;" vertex="1" parent="1">
          <mxGeometry x="229" y="440" width="78" height="78" as="geometry" />
        </mxCell>
        <mxCell id="E4vfO_kaEjMB32sDwaS7-23" value="" style="edgeStyle=orthogonalEdgeStyle;rounded=0;orthogonalLoop=1;jettySize=auto;html=1;" edge="1" parent="1" source="E4vfO_kaEjMB32sDwaS7-7" target="E4vfO_kaEjMB32sDwaS7-15">
          <mxGeometry relative="1" as="geometry" />
        </mxCell>
        <mxCell id="E4vfO_kaEjMB32sDwaS7-7" value="" style="sketch=0;outlineConnect=0;fontColor=#232F3E;gradientColor=none;fillColor=#4D27AA;strokeColor=none;dashed=0;verticalLabelPosition=bottom;verticalAlign=top;align=center;html=1;fontSize=12;fontStyle=0;aspect=fixed;pointerEvents=1;shape=mxgraph.aws4.glue_data_catalog;" vertex="1" parent="1">
          <mxGeometry x="323" y="170" width="72" height="78" as="geometry" />
        </mxCell>
        <mxCell id="E4vfO_kaEjMB32sDwaS7-8" value="" style="sketch=0;points=[[0,0,0],[0.25,0,0],[0.5,0,0],[0.75,0,0],[1,0,0],[0,1,0],[0.25,1,0],[0.5,1,0],[0.75,1,0],[1,1,0],[0,0.25,0],[0,0.5,0],[0,0.75,0],[1,0.25,0],[1,0.5,0],[1,0.75,0]];outlineConnect=0;fontColor=#232F3E;gradientColor=#945DF2;gradientDirection=north;fillColor=#5A30B5;strokeColor=#ffffff;dashed=0;verticalLabelPosition=bottom;verticalAlign=top;align=center;html=1;fontSize=12;fontStyle=0;aspect=fixed;shape=mxgraph.aws4.resourceIcon;resIcon=mxgraph.aws4.athena;" vertex="1" parent="1">
          <mxGeometry x="84.5" y="570" width="78" height="78" as="geometry" />
        </mxCell>
        <mxCell id="E4vfO_kaEjMB32sDwaS7-9" value="Amazon QuickSight" style="sketch=0;outlineConnect=0;fontColor=#232F3E;gradientColor=none;strokeColor=#ffffff;fillColor=#232F3E;dashed=0;verticalLabelPosition=middle;verticalAlign=bottom;align=center;html=1;whiteSpace=wrap;fontSize=10;fontStyle=1;spacing=3;shape=mxgraph.aws4.productIcon;prIcon=mxgraph.aws4.quicksight;" vertex="1" parent="1">
          <mxGeometry x="560" y="570" width="80" height="110" as="geometry" />
        </mxCell>
        <mxCell id="E4vfO_kaEjMB32sDwaS7-26" value="" style="edgeStyle=orthogonalEdgeStyle;rounded=0;orthogonalLoop=1;jettySize=auto;html=1;" edge="1" parent="1" source="E4vfO_kaEjMB32sDwaS7-10" target="E4vfO_kaEjMB32sDwaS7-6">
          <mxGeometry relative="1" as="geometry" />
        </mxCell>
        <mxCell id="E4vfO_kaEjMB32sDwaS7-29" style="edgeStyle=orthogonalEdgeStyle;rounded=0;orthogonalLoop=1;jettySize=auto;html=1;" edge="1" parent="1" source="E4vfO_kaEjMB32sDwaS7-10">
          <mxGeometry relative="1" as="geometry">
            <mxPoint x="370" y="570" as="targetPoint" />
            <Array as="points">
              <mxPoint x="363" y="510" />
              <mxPoint x="370" y="510" />
            </Array>
          </mxGeometry>
        </mxCell>
        <mxCell id="E4vfO_kaEjMB32sDwaS7-10" value="&lt;b&gt;S3 Bucket&lt;/b&gt;" style="text;html=1;strokeColor=none;fillColor=none;align=center;verticalAlign=middle;whiteSpace=wrap;rounded=0;" vertex="1" parent="1">
          <mxGeometry x="323" y="405" width="80" height="30" as="geometry" />
        </mxCell>
        <mxCell id="E4vfO_kaEjMB32sDwaS7-11" value="&lt;b&gt;Glue ETL&lt;/b&gt;" style="text;html=1;strokeColor=none;fillColor=none;align=center;verticalAlign=middle;whiteSpace=wrap;rounded=0;" vertex="1" parent="1">
          <mxGeometry x="307" y="248" width="110" height="30" as="geometry" />
        </mxCell>
        <mxCell id="E4vfO_kaEjMB32sDwaS7-12" value="&lt;b&gt;Relational Database&lt;/b&gt;" style="text;html=1;strokeColor=none;fillColor=none;align=center;verticalAlign=middle;whiteSpace=wrap;rounded=0;" vertex="1" parent="1">
          <mxGeometry x="307" y="98" width="110" height="30" as="geometry" />
        </mxCell>
        <mxCell id="E4vfO_kaEjMB32sDwaS7-13" value="&lt;b&gt;Alphavantage&lt;/b&gt;" style="text;html=1;strokeColor=none;fillColor=none;align=center;verticalAlign=middle;whiteSpace=wrap;rounded=0;" vertex="1" parent="1">
          <mxGeometry x="545" y="98" width="110" height="30" as="geometry" />
        </mxCell>
        <mxCell id="E4vfO_kaEjMB32sDwaS7-24" style="edgeStyle=orthogonalEdgeStyle;rounded=0;orthogonalLoop=1;jettySize=auto;html=1;entryX=0;entryY=0.5;entryDx=0;entryDy=0;entryPerimeter=0;" edge="1" parent="1" source="E4vfO_kaEjMB32sDwaS7-14" target="E4vfO_kaEjMB32sDwaS7-15">
          <mxGeometry relative="1" as="geometry" />
        </mxCell>
        <mxCell id="E4vfO_kaEjMB32sDwaS7-14" value="" style="outlineConnect=0;dashed=0;verticalLabelPosition=bottom;verticalAlign=top;align=center;html=1;shape=mxgraph.aws3.lambda_function;fillColor=#F58534;gradientColor=none;" vertex="1" parent="1">
          <mxGeometry x="95.5" y="336" width="69" height="72" as="geometry" />
        </mxCell>
        <mxCell id="E4vfO_kaEjMB32sDwaS7-15" value="" style="sketch=0;points=[[0,0,0],[0.25,0,0],[0.5,0,0],[0.75,0,0],[1,0,0],[0,1,0],[0.25,1,0],[0.5,1,0],[0.75,1,0],[1,1,0],[0,0.25,0],[0,0.5,0],[0,0.75,0],[1,0.25,0],[1,0.5,0],[1,0.75,0]];outlineConnect=0;fontColor=#232F3E;gradientColor=#60A337;gradientDirection=north;fillColor=#277116;strokeColor=#ffffff;dashed=0;verticalLabelPosition=bottom;verticalAlign=top;align=center;html=1;fontSize=12;fontStyle=0;aspect=fixed;shape=mxgraph.aws4.resourceIcon;resIcon=mxgraph.aws4.s3;" vertex="1" parent="1">
          <mxGeometry x="319" y="333" width="78" height="78" as="geometry" />
        </mxCell>
        <mxCell id="E4vfO_kaEjMB32sDwaS7-16" value="&lt;b&gt;Athena&lt;/b&gt;" style="text;html=1;strokeColor=none;fillColor=none;align=center;verticalAlign=middle;whiteSpace=wrap;rounded=0;" vertex="1" parent="1">
          <mxGeometry x="64" y="648" width="110" height="30" as="geometry" />
        </mxCell>
        <mxCell id="E4vfO_kaEjMB32sDwaS7-17" value="&lt;b&gt;Glue Catalog&lt;/b&gt;" style="text;html=1;strokeColor=none;fillColor=none;align=center;verticalAlign=middle;whiteSpace=wrap;rounded=0;" vertex="1" parent="1">
          <mxGeometry x="315" y="648" width="110" height="30" as="geometry" />
        </mxCell>
        <mxCell id="E4vfO_kaEjMB32sDwaS7-27" style="edgeStyle=orthogonalEdgeStyle;rounded=0;orthogonalLoop=1;jettySize=auto;html=1;entryX=0.5;entryY=0;entryDx=0;entryDy=0;entryPerimeter=0;" edge="1" parent="1" source="E4vfO_kaEjMB32sDwaS7-18" target="E4vfO_kaEjMB32sDwaS7-4">
          <mxGeometry relative="1" as="geometry">
            <mxPoint x="370" y="560" as="targetPoint" />
          </mxGeometry>
        </mxCell>
        <mxCell id="E4vfO_kaEjMB32sDwaS7-18" value="&lt;b&gt;Glue Crawler&lt;/b&gt;" style="text;html=1;strokeColor=none;fillColor=none;align=center;verticalAlign=middle;whiteSpace=wrap;rounded=0;" vertex="1" parent="1">
          <mxGeometry x="213" y="510" width="110" height="30" as="geometry" />
        </mxCell>
        <mxCell id="E4vfO_kaEjMB32sDwaS7-20" style="edgeStyle=orthogonalEdgeStyle;rounded=0;orthogonalLoop=1;jettySize=auto;html=1;entryX=0.5;entryY=0;entryDx=0;entryDy=0;entryPerimeter=0;" edge="1" parent="1" source="E4vfO_kaEjMB32sDwaS7-19" target="E4vfO_kaEjMB32sDwaS7-14">
          <mxGeometry relative="1" as="geometry" />
        </mxCell>
        <mxCell id="E4vfO_kaEjMB32sDwaS7-19" value="&lt;b&gt;S3 Bucket&lt;/b&gt;" style="text;html=1;strokeColor=none;fillColor=none;align=center;verticalAlign=middle;whiteSpace=wrap;rounded=0;" vertex="1" parent="1">
          <mxGeometry x="90" y="108" width="80" height="30" as="geometry" />
        </mxCell>
      </root>
    </mxGraphModel>
  </diagram>
</mxfile>
